<mxfile host="Electron" modified="2024-04-14T13:03:58.520Z" agent="Mozilla/5.0 (Windows NT 10.0; Win64; x64) AppleWebKit/537.36 (KHTML, like Gecko) draw.io/21.1.2 Chrome/106.0.5249.199 Electron/21.4.3 Safari/537.36" etag="w52VG_DdXImfRP5UmBZD" version="21.1.2" type="device" pages="2">
  <diagram name="Timer-structure" id="b_uDBBJ2MgNxLQHOcmpQ">
    <mxGraphModel dx="2268" dy="828" grid="1" gridSize="10" guides="1" tooltips="1" connect="1" arrows="1" fold="1" page="1" pageScale="1" pageWidth="850" pageHeight="1100" math="0" shadow="0">
      <root>
        <mxCell id="0" />
        <mxCell id="1" parent="0" />
        <mxCell id="0m-n_d27Zn1V3y7lR1SX-1" value="" style="rounded=1;whiteSpace=wrap;html=1;dashed=1;fillStyle=solid;fillColor=#E6E6E6;strokeColor=none;" parent="1" vertex="1">
          <mxGeometry x="-50" y="380" width="790" height="140" as="geometry" />
        </mxCell>
        <mxCell id="E3zxyAR4qr2r-lfOXRCv-13" style="edgeStyle=orthogonalEdgeStyle;rounded=0;orthogonalLoop=1;jettySize=auto;html=1;exitX=1;exitY=0.25;exitDx=0;exitDy=0;entryX=0;entryY=0.25;entryDx=0;entryDy=0;" parent="1" source="E3zxyAR4qr2r-lfOXRCv-9" target="E3zxyAR4qr2r-lfOXRCv-10" edge="1">
          <mxGeometry relative="1" as="geometry" />
        </mxCell>
        <mxCell id="E3zxyAR4qr2r-lfOXRCv-20" style="edgeStyle=orthogonalEdgeStyle;rounded=0;orthogonalLoop=1;jettySize=auto;html=1;entryX=0.5;entryY=0;entryDx=0;entryDy=0;" parent="1" source="E3zxyAR4qr2r-lfOXRCv-9" target="E3zxyAR4qr2r-lfOXRCv-12" edge="1">
          <mxGeometry relative="1" as="geometry">
            <Array as="points">
              <mxPoint x="45" y="400" />
              <mxPoint x="645" y="400" />
            </Array>
          </mxGeometry>
        </mxCell>
        <mxCell id="E3zxyAR4qr2r-lfOXRCv-9" value="struct ecu_timer_collection&lt;br&gt;(Dummy terminal node)" style="rounded=1;whiteSpace=wrap;html=1;" parent="1" vertex="1">
          <mxGeometry x="-30" y="420" width="150" height="60" as="geometry" />
        </mxCell>
        <mxCell id="E3zxyAR4qr2r-lfOXRCv-14" style="edgeStyle=orthogonalEdgeStyle;rounded=0;orthogonalLoop=1;jettySize=auto;html=1;exitX=0;exitY=0.75;exitDx=0;exitDy=0;entryX=1;entryY=0.75;entryDx=0;entryDy=0;" parent="1" source="E3zxyAR4qr2r-lfOXRCv-10" target="E3zxyAR4qr2r-lfOXRCv-9" edge="1">
          <mxGeometry relative="1" as="geometry" />
        </mxCell>
        <mxCell id="E3zxyAR4qr2r-lfOXRCv-15" style="edgeStyle=orthogonalEdgeStyle;rounded=0;orthogonalLoop=1;jettySize=auto;html=1;exitX=1;exitY=0.25;exitDx=0;exitDy=0;entryX=0;entryY=0.25;entryDx=0;entryDy=0;" parent="1" source="E3zxyAR4qr2r-lfOXRCv-10" target="E3zxyAR4qr2r-lfOXRCv-11" edge="1">
          <mxGeometry relative="1" as="geometry" />
        </mxCell>
        <mxCell id="E3zxyAR4qr2r-lfOXRCv-10" value="struct ecu_timer" style="rounded=1;whiteSpace=wrap;html=1;" parent="1" vertex="1">
          <mxGeometry x="170" y="420" width="150" height="60" as="geometry" />
        </mxCell>
        <mxCell id="E3zxyAR4qr2r-lfOXRCv-16" style="edgeStyle=orthogonalEdgeStyle;rounded=0;orthogonalLoop=1;jettySize=auto;html=1;exitX=0;exitY=0.75;exitDx=0;exitDy=0;entryX=1;entryY=0.75;entryDx=0;entryDy=0;" parent="1" source="E3zxyAR4qr2r-lfOXRCv-11" target="E3zxyAR4qr2r-lfOXRCv-10" edge="1">
          <mxGeometry relative="1" as="geometry" />
        </mxCell>
        <mxCell id="E3zxyAR4qr2r-lfOXRCv-17" style="edgeStyle=orthogonalEdgeStyle;rounded=0;orthogonalLoop=1;jettySize=auto;html=1;exitX=1;exitY=0.25;exitDx=0;exitDy=0;entryX=0;entryY=0.25;entryDx=0;entryDy=0;" parent="1" source="E3zxyAR4qr2r-lfOXRCv-11" target="E3zxyAR4qr2r-lfOXRCv-12" edge="1">
          <mxGeometry relative="1" as="geometry" />
        </mxCell>
        <mxCell id="E3zxyAR4qr2r-lfOXRCv-11" value="struct ecu_timer" style="rounded=1;whiteSpace=wrap;html=1;" parent="1" vertex="1">
          <mxGeometry x="370" y="420" width="150" height="60" as="geometry" />
        </mxCell>
        <mxCell id="E3zxyAR4qr2r-lfOXRCv-18" style="edgeStyle=orthogonalEdgeStyle;rounded=0;orthogonalLoop=1;jettySize=auto;html=1;exitX=0;exitY=0.75;exitDx=0;exitDy=0;entryX=1;entryY=0.75;entryDx=0;entryDy=0;" parent="1" source="E3zxyAR4qr2r-lfOXRCv-12" target="E3zxyAR4qr2r-lfOXRCv-11" edge="1">
          <mxGeometry relative="1" as="geometry" />
        </mxCell>
        <mxCell id="E3zxyAR4qr2r-lfOXRCv-19" style="edgeStyle=orthogonalEdgeStyle;rounded=0;orthogonalLoop=1;jettySize=auto;html=1;entryX=0.464;entryY=1.013;entryDx=0;entryDy=0;entryPerimeter=0;" parent="1" source="E3zxyAR4qr2r-lfOXRCv-12" target="E3zxyAR4qr2r-lfOXRCv-9" edge="1">
          <mxGeometry relative="1" as="geometry">
            <Array as="points">
              <mxPoint x="645" y="500" />
              <mxPoint x="40" y="500" />
            </Array>
          </mxGeometry>
        </mxCell>
        <mxCell id="E3zxyAR4qr2r-lfOXRCv-12" value="struct ecu_timer" style="rounded=1;whiteSpace=wrap;html=1;" parent="1" vertex="1">
          <mxGeometry x="570" y="420" width="150" height="60" as="geometry" />
        </mxCell>
      </root>
    </mxGraphModel>
  </diagram>
  <diagram id="MRhKOPgnAMyhnWef8QOH" name="User-defined-timer">
    <mxGraphModel dx="746" dy="436" grid="1" gridSize="10" guides="1" tooltips="1" connect="1" arrows="1" fold="1" page="1" pageScale="1" pageWidth="850" pageHeight="1100" math="0" shadow="0">
      <root>
        <mxCell id="0" />
        <mxCell id="1" parent="0" />
        <mxCell id="5bX2r2RtYOvgmtIAgZh--1" value="" style="group" vertex="1" connectable="0" parent="1">
          <mxGeometry x="90" y="300" width="540" height="180" as="geometry" />
        </mxCell>
        <mxCell id="1NHUgZrfUA_fVuOd6SKd-7" value="" style="rounded=1;whiteSpace=wrap;html=1;fillStyle=solid;fillColor=#E6E6E6;strokeColor=none;" parent="5bX2r2RtYOvgmtIAgZh--1" vertex="1">
          <mxGeometry y="13.846153846153848" width="540" height="152.30769230769232" as="geometry" />
        </mxCell>
        <mxCell id="1NHUgZrfUA_fVuOd6SKd-2" value="struct ecu_timer_collection&lt;br style=&quot;border-color: var(--border-color);&quot;&gt;&lt;span style=&quot;&quot;&gt;{&lt;/span&gt;&lt;br style=&quot;border-color: var(--border-color);&quot;&gt;&lt;span style=&quot;&quot;&gt;&lt;span style=&quot;white-space: pre;&quot;&gt;	&lt;/span&gt;....&lt;/span&gt;&lt;br style=&quot;border-color: var(--border-color);&quot;&gt;&lt;span style=&quot;border-color: var(--border-color);&quot;&gt; &lt;/span&gt;&lt;span style=&quot;&quot;&gt;&lt;span style=&quot;white-space: pre;&quot;&gt; &lt;span style=&quot;white-space: pre;&quot;&gt;	&lt;/span&gt;&lt;/span&gt;....&lt;/span&gt;&lt;br style=&quot;border-color: var(--border-color);&quot;&gt;&lt;span style=&quot;border-color: var(--border-color);&quot;&gt; &lt;/span&gt;&lt;span style=&quot;&quot;&gt;&lt;span style=&quot;white-space: pre;&quot;&gt; &lt;span style=&quot;white-space: pre;&quot;&gt;	&lt;/span&gt;&lt;/span&gt;struct i_ecu_timer *driver;&lt;/span&gt;&lt;br style=&quot;border-color: var(--border-color);&quot;&gt;&lt;span style=&quot;&quot;&gt;};&lt;/span&gt;" style="text;html=1;strokeColor=none;fillColor=none;align=left;verticalAlign=middle;whiteSpace=wrap;rounded=0;" parent="5bX2r2RtYOvgmtIAgZh--1" vertex="1">
          <mxGeometry x="14.594594594594597" width="248.1081081081081" height="180" as="geometry" />
        </mxCell>
        <mxCell id="1NHUgZrfUA_fVuOd6SKd-5" value="Hardware timer defined by user." style="rounded=1;whiteSpace=wrap;html=1;" parent="5bX2r2RtYOvgmtIAgZh--1" vertex="1">
          <mxGeometry x="350.27027027027026" y="27.692307692307697" width="175.13513513513513" height="83.07692307692308" as="geometry" />
        </mxCell>
        <mxCell id="5bX2r2RtYOvgmtIAgZh--7" style="edgeStyle=orthogonalEdgeStyle;rounded=0;orthogonalLoop=1;jettySize=auto;html=1;entryX=0;entryY=0.5;entryDx=0;entryDy=0;" edge="1" parent="5bX2r2RtYOvgmtIAgZh--1" target="1NHUgZrfUA_fVuOd6SKd-5">
          <mxGeometry relative="1" as="geometry">
            <mxPoint x="183" y="113" as="sourcePoint" />
          </mxGeometry>
        </mxCell>
      </root>
    </mxGraphModel>
  </diagram>
</mxfile>
